<svg version="1.1" id="share" x="0px" y="0px" width="300px" height="300px" viewBox="0 0 300 300" enable-background="new 0 0 300 300">
<g id="phone">
	<path id="frame" fill="#333333" d="M221,247c0,8.3-6.7,15-15,15H93c-8.3,0-15-6.7-15-15V53c0-8.3,6.7-15,15-15h113
		c8.3,0,15,6.7,15,15V247z"/>
	<path id="background" fill="#CCCCCC" d="M214,212c0,4.4-3.6,8-8,8H94c-4.4,0-8-3.6-8-8V65c0-4.4,3.6-8,8-8h112c4.4,0,8,3.6,8,8
		V212z"/>
	<line id="speaker" fill="none" stroke="#4D4D4D" stroke-width="3" stroke-linecap="round" stroke-miterlimit="10" x1="124" y1="48.5" x2="176" y2="48.5"/>
	<path id="button" fill="#4D4D4D" d="M158.1,242.7c0,4.5-3.6,8.1-8.1,8.1c-4.5,0-8.1-3.6-8.1-8.1s3.6-8.1,8.1-8.1
		C154.5,234.6,158.1,238.2,158.1,242.7"/>
</g>
<g id="submit">
	<path id="shadow" fill="#333333" d="M181,205c0,1.1-0.5,2-1.5,2h-60.2c-1,0-2.3-0.9-2.3-2v-12c0-1.1,1.4-2,2.3-2h60.2
		c1,0,1.5,0.9,1.5,2V205z"/>
	<path id="button_top" fill="#4D4D4D" d="M181,199.6c0,1.1,0.1,2.4-0.9,2.4h-61.8c-1,0-1.3-1.3-1.3-2.4v-13.5c0-1.1,0.3-2.1,1.3-2.1
		h61.8c1,0,0.9,0.9,0.9,2.1V199.6z"/>
	<text id="submit-text" transform="matrix(1 0 0 1 127.5903 196.3447)"><tspan x="0" y="0" fill="#FFFFFF" font-family="'Gotham-Black'" font-size="9" letter-spacing="1">SU</tspan><tspan x="13.9" y="0" fill="#FFFFFF" font-family="'Gotham-Black'" font-size="9" letter-spacing="1">B</tspan><tspan x="20.5" y="0" fill="#FFFFFF" font-family="'Gotham-Black'" font-size="9" letter-spacing="1">MI</tspan><tspan x="33.5" y="0" fill="#FFFFFF" font-family="'Gotham-Black'" font-size="9">T</tspan></text>
</g>
<g id="speech">
	<path id="speech-bg" display="inline" fill="#CCCCCC" d="M214,176c0,4.4-3.6,8-8.1,8H94.2c-4.4,0-8.2-3.6-8.2-8V65
		c0-4.4,3.8-8,8.2-8h111.7c4.4,0,8.1,3.6,8.1,8V176z"/>
	<g id="pointer" display="inline">
		<path fill="#CCCCCC" d="M130,180.3c1.9,2,1.3,3.7-1.5,3.7H63.9c-2.8,0-3.4-1.7-1.5-3.7l30.2-30.7c1.9-2,5.1-1.9,7,0L130,180.3z"/>
	</g>
</g>
<g id="text">
	<rect x="108.7" y="157.5" fill="#666666" width="41.7" height="6.9"/>
	<rect x="108.7" y="137.7" fill="#666666" width="82.6" height="6.9"/>
	<rect x="108.7" y="117.9" fill="#666666" width="82.6" height="6.9"/>
	<rect x="108.7" y="98" fill="#666666" width="82.6" height="6.9"/>
	<rect x="108.7" y="78.2" fill="#666666" width="82.6" height="6.9"/>
</g>
</svg>
